<?xml version="1.0" encoding="utf-8"?>
<!-- Generator: Adobe Illustrator 16.0.4, SVG Export Plug-In . SVG Version: 6.00 Build 0)  -->
<!DOCTYPE svg PUBLIC "-//W3C//DTD SVG 1.1//EN" "http://www.w3.org/Graphics/SVG/1.1/DTD/svg11.dtd">
<svg version="1.1" id="Layer_1" xmlns="http://www.w3.org/2000/svg" xmlns:xlink="http://www.w3.org/1999/xlink" x="0px" y="0px"
	 width="894.505px" height="1040.65px" viewBox="0 0 894.505 1040.65" enable-background="new 0 0 894.505 1040.65"
	 xml:space="preserve">
<g>
	<defs>
		<rect id="SVGID_1_" y="-0.004" width="894.505" height="1040.654"/>
	</defs>
	<clipPath id="SVGID_2_">
		<use xlink:href="#SVGID_1_"  overflow="visible"/>
	</clipPath>
	
		<path clip-path="url(#SVGID_2_)" fill="none" stroke="#B53E31" stroke-width="5" stroke-linecap="round" stroke-linejoin="round" stroke-miterlimit="10" d="
		M244.839,874.615c0,0-17.384,6.036-13.553,50.684c3.031,35.325-14.521,62.095-32.907,69.928"/>
	
		<path clip-path="url(#SVGID_2_)" fill="none" stroke="#B53E31" stroke-width="5" stroke-linecap="round" stroke-linejoin="round" stroke-miterlimit="10" d="
		M231.889,944.891c0,0,45.724,33.37,25.776,93.259"/>
	
		<line clip-path="url(#SVGID_2_)" fill="none" stroke="#B53E31" stroke-width="5" stroke-linecap="round" stroke-linejoin="round" stroke-miterlimit="10" x1="277.726" y1="764.765" x2="260.463" y2="763.608"/>
	
		<polyline clip-path="url(#SVGID_2_)" fill="none" stroke="#B53E31" stroke-width="5" stroke-linecap="round" stroke-linejoin="round" stroke-miterlimit="10" points="
		142.862,991.52 142.862,842.511 124.862,842.511 124.862,719.253 97.606,719.202 97.606,679.579 2.5,679.579 	"/>
	
		<polyline clip-path="url(#SVGID_2_)" fill="none" stroke="#B53E31" stroke-width="5" stroke-linecap="round" stroke-linejoin="round" stroke-miterlimit="10" points="
		41.768,816.993 98.626,816.993 98.626,834.22 41.768,834.22 	"/>
	
		<polyline clip-path="url(#SVGID_2_)" fill="none" stroke="#B53E31" stroke-width="5" stroke-linecap="round" stroke-linejoin="round" stroke-miterlimit="10" points="
		41.768,785.454 98.626,785.454 98.626,802.68 41.768,802.68 	"/>
	
		<polyline clip-path="url(#SVGID_2_)" fill="none" stroke="#B53E31" stroke-width="5" stroke-linecap="round" stroke-linejoin="round" stroke-miterlimit="10" points="
		41.768,753.914 98.626,753.914 98.626,771.14 41.768,771.14 	"/>
	
		<line clip-path="url(#SVGID_2_)" fill="none" stroke="#B53E31" stroke-width="5" stroke-linecap="round" stroke-linejoin="round" stroke-miterlimit="10" x1="97.606" y1="719.202" x2="78.541" y2="719.202"/>
	
		<path clip-path="url(#SVGID_2_)" fill="none" stroke="#B53E31" stroke-width="5" stroke-linecap="round" stroke-linejoin="round" stroke-miterlimit="10" d="
		M476.227,802.175c-6.464,3.367-10.879,10.129-10.879,17.922v29.944c0,11.152-9.041,20.193-20.194,20.193
		c-11.153,0-20.195-9.041-20.195-20.193v-29.944c0-11.153-9.041-20.194-20.194-20.194c-11.154,0-20.195,9.041-20.195,20.194v29.944
		c0,11.152-9.041,20.193-20.194,20.193c-11.154,0-20.195-9.041-20.195-20.193v-16.896"/>
	
		<path clip-path="url(#SVGID_2_)" fill="none" stroke="#B53E31" stroke-width="5" stroke-linecap="round" stroke-linejoin="round" stroke-miterlimit="10" d="
		M539.438,894.389c-40.258-28.502-63.804-80.946-75.917-142.119h-88.659c0,0-25.743,96.077-71.323,141.725"/>
	
		<polyline clip-path="url(#SVGID_2_)" fill="none" stroke="#B53E31" stroke-width="5" stroke-linecap="round" stroke-linejoin="round" stroke-miterlimit="10" points="
		202.044,605.695 202.044,618.143 117.858,618.143 117.858,605.695 	"/>
	
		<path clip-path="url(#SVGID_2_)" fill="none" stroke="#B53E31" stroke-width="5" stroke-linecap="round" stroke-linejoin="round" stroke-miterlimit="10" d="
		M139.962,579.694c2.853-8.295,10.725-14.255,19.988-14.255c9.264,0,17.135,5.96,19.989,14.255"/>
	
		<path clip-path="url(#SVGID_2_)" fill="none" stroke="#B53E31" stroke-width="5" stroke-linecap="round" stroke-linejoin="round" stroke-miterlimit="10" d="
		M171.678,580.181h36.453c10.543,0,19.09,8.547,19.09,19.09v6.424H92.681v-6.424c0-10.543,8.546-19.09,19.089-19.09H171.678"/>
	
		<polyline clip-path="url(#SVGID_2_)" fill="none" stroke="#B53E31" stroke-width="5" stroke-linecap="round" stroke-linejoin="round" stroke-miterlimit="10" points="
		605.093,780.764 634.008,755.723 662.922,780.764 	"/>
	
		<polyline clip-path="url(#SVGID_2_)" fill="none" stroke="#B53E31" stroke-width="5" stroke-linecap="round" stroke-linejoin="round" stroke-miterlimit="10" points="
		605.127,780.764 558.861,780.764 558.861,850.236 503.324,850.236 	"/>
	
		<line clip-path="url(#SVGID_2_)" fill="none" stroke="#B53E31" stroke-width="5" stroke-linecap="round" stroke-linejoin="round" stroke-miterlimit="10" x1="683.309" y1="780.764" x2="662.924" y2="780.764"/>
	
		<line clip-path="url(#SVGID_2_)" fill="none" stroke="#B53E31" stroke-width="5" stroke-linecap="round" stroke-linejoin="round" stroke-miterlimit="10" x1="633.82" y1="647.717" x2="633.82" y2="623.412"/>
	
		<path clip-path="url(#SVGID_2_)" fill="none" stroke="#B53E31" stroke-width="5" stroke-linecap="round" stroke-linejoin="round" stroke-miterlimit="10" d="
		M662.923,780.764v-95.3c0-13.724-9.565-25.213-22.393-28.163l-0.009,0.04v-9.624h-13.402v9.624l0.013,0.052
		c-12.631,3.092-22.005,14.486-22.005,28.071v95.3"/>
	
		<circle clip-path="url(#SVGID_2_)" fill="none" stroke="#B53E31" stroke-width="5" stroke-linecap="round" stroke-linejoin="round" stroke-miterlimit="10" cx="633.8" cy="696.756" r="12.13"/>
	
		<polyline clip-path="url(#SVGID_2_)" fill="none" stroke="#B53E31" stroke-width="5" stroke-linecap="round" stroke-linejoin="round" stroke-miterlimit="10" points="
		497.112,919.697 516.783,909.236 556.609,888.055 596.429,909.232 616.106,919.697 	"/>
	
		<polyline clip-path="url(#SVGID_2_)" fill="none" stroke="#B53E31" stroke-width="5" stroke-linecap="round" stroke-linejoin="round" stroke-miterlimit="10" points="
		497.112,919.697 406.458,919.728 406.458,1009.359 324.195,1009.359 	"/>
	
		<line clip-path="url(#SVGID_2_)" fill="none" stroke="#B53E31" stroke-width="5" stroke-linecap="round" stroke-linejoin="round" stroke-miterlimit="10" x1="680.881" y1="919.728" x2="616.106" y2="919.698"/>
	
		<line clip-path="url(#SVGID_2_)" fill="none" stroke="#B53E31" stroke-width="5" stroke-linecap="round" stroke-linejoin="round" stroke-miterlimit="10" x1="581.893" y1="940.135" x2="581.893" y2="1007.43"/>
	
		<line clip-path="url(#SVGID_2_)" fill="none" stroke="#B53E31" stroke-width="5" stroke-linecap="round" stroke-linejoin="round" stroke-miterlimit="10" x1="615.805" y1="940.135" x2="615.805" y2="1007.43"/>
	
		<line clip-path="url(#SVGID_2_)" fill="none" stroke="#B53E31" stroke-width="5" stroke-linecap="round" stroke-linejoin="round" stroke-miterlimit="10" x1="547.98" y1="940.135" x2="547.98" y2="1007.43"/>
	
		<line clip-path="url(#SVGID_2_)" fill="none" stroke="#B53E31" stroke-width="5" stroke-linecap="round" stroke-linejoin="round" stroke-miterlimit="10" x1="564.937" y1="940.135" x2="564.937" y2="1007.43"/>
	
		<line clip-path="url(#SVGID_2_)" fill="none" stroke="#B53E31" stroke-width="5" stroke-linecap="round" stroke-linejoin="round" stroke-miterlimit="10" x1="598.849" y1="940.135" x2="598.849" y2="1007.43"/>
	
		<line clip-path="url(#SVGID_2_)" fill="none" stroke="#B53E31" stroke-width="5" stroke-linecap="round" stroke-linejoin="round" stroke-miterlimit="10" x1="531.024" y1="940.135" x2="531.024" y2="1007.43"/>
	
		<line clip-path="url(#SVGID_2_)" fill="none" stroke="#B53E31" stroke-width="5" stroke-linecap="round" stroke-linejoin="round" stroke-miterlimit="10" x1="514.068" y1="940.135" x2="514.068" y2="1007.43"/>
	
		<line clip-path="url(#SVGID_2_)" fill="none" stroke="#B53E31" stroke-width="5" stroke-linecap="round" stroke-linejoin="round" stroke-miterlimit="10" x1="497.112" y1="940.135" x2="497.112" y2="1007.43"/>
	
		<polyline clip-path="url(#SVGID_2_)" fill="none" stroke="#B53E31" stroke-width="5" stroke-linecap="round" stroke-linejoin="round" stroke-miterlimit="10" points="
		615.805,940.135 615.805,922.775 497.333,922.775 497.333,940.135 	"/>
	
		<rect x="468.854" y="951.917" clip-path="url(#SVGID_2_)" fill="none" stroke="#B53E31" stroke-width="5" stroke-linecap="round" stroke-linejoin="round" stroke-miterlimit="10" width="14.012" height="43.104"/>
	
		<rect x="444.497" y="952.364" clip-path="url(#SVGID_2_)" fill="none" stroke="#B53E31" stroke-width="5" stroke-linecap="round" stroke-linejoin="round" stroke-miterlimit="10" width="14.011" height="42.393"/>
	
		<rect x="421.465" y="952.364" clip-path="url(#SVGID_2_)" fill="none" stroke="#B53E31" stroke-width="5" stroke-linecap="round" stroke-linejoin="round" stroke-miterlimit="10" width="14.011" height="42.393"/>
	
		<rect x="654.418" y="951.917" clip-path="url(#SVGID_2_)" fill="none" stroke="#B53E31" stroke-width="5" stroke-linecap="round" stroke-linejoin="round" stroke-miterlimit="10" width="14.011" height="43.104"/>
	
		<rect x="630.061" y="952.364" clip-path="url(#SVGID_2_)" fill="none" stroke="#B53E31" stroke-width="5" stroke-linecap="round" stroke-linejoin="round" stroke-miterlimit="10" width="14.012" height="42.393"/>
	
		<line clip-path="url(#SVGID_2_)" fill="none" stroke="#B53E31" stroke-width="5" stroke-linecap="round" stroke-linejoin="round" stroke-miterlimit="10" x1="406.458" y1="940.135" x2="680.881" y2="940.135"/>
	
		<path clip-path="url(#SVGID_2_)" fill="none" stroke="#B53E31" stroke-width="5" stroke-linecap="round" stroke-linejoin="round" stroke-miterlimit="10" d="
		M474.612,598.976c5.999-17.374,22.497-29.854,41.91-29.854c14.41,0,27.214,6.876,35.31,17.526"/>
	
		<path clip-path="url(#SVGID_2_)" fill="none" stroke="#B53E31" stroke-width="5" stroke-linecap="round" stroke-linejoin="round" stroke-miterlimit="10" d="
		M725.53,561.286c8.375-20.864,28.793-32.184,52.651-32.184c18.073,0,34.172,8.454,44.558,21.623"/>
	
		<path clip-path="url(#SVGID_2_)" fill="none" stroke="#B53E31" stroke-width="5" stroke-linecap="round" stroke-linejoin="round" stroke-miterlimit="10" d="
		M822.739,550.725c8.064-6.895,18.533-11.06,29.977-11.06c16.603,0,31.158,8.767,39.289,21.924"/>
	
		<path clip-path="url(#SVGID_2_)" fill="none" stroke="#B53E31" stroke-width="5" stroke-linecap="round" stroke-linejoin="round" stroke-miterlimit="10" d="
		M552.647,586.025c2.798-13.673,12.924-24.675,26.096-28.723"/>
	
		<path clip-path="url(#SVGID_2_)" fill="none" stroke="#B53E31" stroke-width="5" stroke-linecap="round" stroke-linejoin="round" stroke-miterlimit="10" d="
		M658.275,522.103c8.859-13.395,22.494-20.666,39.757-20.666c23.052,0,40.859,14.192,46.371,35.522"/>
	
		<path clip-path="url(#SVGID_2_)" fill="none" stroke="#B53E31" stroke-width="5" stroke-linecap="round" stroke-linejoin="round" stroke-miterlimit="10" d="
		M578.642,556.975c0-25.689,20.825-46.514,46.515-46.514c15.425,0,29.096,7.508,37.559,19.07"/>
	
		<path clip-path="url(#SVGID_2_)" fill="none" stroke="#B53E31" stroke-width="5" stroke-linecap="round" stroke-linejoin="round" stroke-miterlimit="10" d="
		M274.89,791.113l14.141-0.626l4.527-13.414l14.147-0.63l4.527-13.415l14.151-0.632l4.533-13.42
		c-23.462-16.643-57.852-20.943-100.896,11.079l-22.664-4.932l-11.26,22.489l-24.517-6.541l-9.842,22.662l-20.516-10.136
		l-16.367,24.647"/>
	
		<path clip-path="url(#SVGID_2_)" fill="none" stroke="#B53E31" stroke-width="5" stroke-linecap="round" stroke-linejoin="round" stroke-miterlimit="10" d="
		M297.604,799.903c8.69-28.762,31.598,4.956,46.576-14.45"/>
	
		<path clip-path="url(#SVGID_2_)" fill="none" stroke="#B53E31" stroke-width="5" stroke-linecap="round" stroke-linejoin="round" stroke-miterlimit="10" d="
		M466.316,727.769c13.249-6.1,23.228-18.59,25.446-34.103c0.109-0.775,0.194-1.547,0.265-2.318c1.646,0.269,3.321,0.444,5.042,0.444
		c17.252,0,31.238-13.986,31.238-31.239c0-17.252-13.986-31.238-31.238-31.238c-1.106,0-2.198,0.062-3.274,0.173
		c-0.659-16.556-13.019-30.807-30.009-33.235c-8.069-1.153-15.874,0.568-22.426,4.351c-7.118-18.312-23.631-32.364-44.466-35.343
		c-22.8-3.259-44.348,7.654-55.758,26.048c-26.746-2.587-51.052,16.306-54.894,43.178c-3.954,27.649,15.255,53.268,42.904,57.221
		c10.024,1.433,19.774-0.19,28.329-4.145c-0.577,1.815-1.022,3.698-1.301,5.646c-2.737,19.145,10.564,36.883,29.708,39.62
		c4.207,0.602,8.334,0.388,12.26-0.451"/>
	
		<path clip-path="url(#SVGID_2_)" fill="none" stroke="#B53E31" stroke-width="5" stroke-linecap="round" stroke-linejoin="round" stroke-miterlimit="10" d="
		M231.889,897.933c11.814,16.239,40.801,15.897,40.801,15.897h24.366h-0.001c3.58,5.318-6.445,17.597-3.516,17.624
		c2.902,0.028,25.283-4.248,25.701-17.624h0.022c0-0.126-0.001-0.251-0.003-0.375c-0.143-11.051-9.345-19.847-20.398-19.847h-11.828
		c-31.123,0-31.642-56.407-31.642-56.407s49.456,5.31,68.804-31.325c0,0-20.584-9.138-49.305-1.017"/>
	
		<path clip-path="url(#SVGID_2_)" fill="none" stroke="#B53E31" stroke-width="5" stroke-linecap="round" stroke-linejoin="round" stroke-miterlimit="10" d="
		M145.221,910.755h37.244c3.58,5.318-6.445,17.598-3.515,17.624c2.901,0.028,32.866,0.001,25.7-17.624
		c-6.842-18.308-24.358-30.42-43.902-30.356"/>
	
		<path clip-path="url(#SVGID_2_)" fill="none" stroke="#B53E31" stroke-width="5" stroke-linecap="round" stroke-linejoin="round" stroke-miterlimit="10" d="
		M427.973,735.404c3.128-28.721,29.156-55.385,46.142-61.053"/>
	
		<path clip-path="url(#SVGID_2_)" fill="none" stroke="#B53E31" stroke-width="5" stroke-linecap="round" stroke-linejoin="round" stroke-miterlimit="10" d="
		M414.102,709.925c-3.128-28.722-29.156-55.386-46.142-61.054"/>
</g>
</svg>
